<svg width="640" height="280" viewBox="0 0 640 280" preserveAspectRatio="xMidYMid slice" xmlns="http://www.w3.org/2000/svg"><defs><filter id="gw-3" x="-5%" y="-5%" width="110%" height="110%"><feTurbulence type="fractalNoise" baseFrequency="0.035" numOctaves="2" seed="7" result="n"></feTurbulence><feDisplacementMap in="SourceGraphic" in2="n" scale="5" xChannelSelector="R" yChannelSelector="G" result="d"></feDisplacementMap><feTurbulence type="fractalNoise" baseFrequency="0.9" numOctaves="1" seed="3" result="g"></feTurbulence><feColorMatrix in="g" type="matrix" values="0 0 0 0 0.17  0 0 0 0 0.12  0 0 0 0 0.08  0 0 0 0.10 0" result="gg"></feColorMatrix><feComposite in="gg" in2="d" operator="in" result="grain"></feComposite><feMerge><feMergeNode in="d"></feMergeNode><feMergeNode in="grain"></feMergeNode></feMerge></filter></defs><g filter="url(#gw-3)" fill="rgb(0, 0, 0)"><rect x="-10" y="-10" width="660" height="300" fill="rgb(180, 208, 214)"></rect><circle cx="512" cy="72" r="54" fill="rgb(233, 180, 76)" opacity="0.35"></circle><circle cx="512" cy="72" r="32" fill="rgb(233, 180, 76)"></circle><g fill="rgb(0, 0, 0)"><path d="M60 70c6-16 30-18 40-6 10-12 34-8 36 8 14 0 18 16 4 18H66c-16 0-18-18-6-20z" fill="rgb(236, 226, 207)" opacity="0.85"></path></g><g fill="rgb(0, 0, 0)"><path transform="translate(250 -30) scale(.7)" d="M60 70c6-16 30-18 40-6 10-12 34-8 36 8 14 0 18 16 4 18H66c-16 0-18-18-6-20z" fill="rgb(236, 226, 207)" opacity="0.85"></path></g><g transform="scale(1 1)" fill="rgb(0, 0, 0)"><path d="M-10 154C50 112 100 122 156 98s96 6 146-8 102-50 150-26 108 6 198 30V290H-10Z" fill="rgb(126, 158, 154)"></path><path d="M-10 194C70 154 156 166 240 146s136 8 220-8 120 2 190-6V290H-10Z" fill="rgb(147, 174, 124)"></path></g><ellipse cx="380" cy="170.40051194218628" rx="5" ry="3.5999999999999996" fill="rgb(78, 122, 69)"></ellipse><ellipse cx="394" cy="172.1482898949464" rx="5" ry="3.5999999999999996" fill="rgb(78, 122, 69)"></ellipse><ellipse cx="408" cy="173.436647259426" rx="5" ry="3.5999999999999996" fill="rgb(78, 122, 69)"></ellipse><ellipse cx="422" cy="173.99006353920728" rx="5" ry="3.5999999999999996" fill="rgb(78, 122, 69)"></ellipse><ellipse cx="436" cy="173.6901883973925" rx="5" ry="3.5999999999999996" fill="rgb(78, 122, 69)"></ellipse><ellipse cx="450" cy="172.60115136062848" rx="5" ry="3.5999999999999996" fill="rgb(78, 122, 69)"></ellipse><circle cx="452.5" cy="173.60115136062848" r="1.8" fill="rgb(184, 58, 46)"></circle><ellipse cx="464" cy="170.95584745731267" rx="5" ry="3.5999999999999996" fill="rgb(78, 122, 69)"></ellipse><ellipse cx="478" cy="169.10613166239042" rx="5" ry="3.5999999999999996" fill="rgb(78, 122, 69)"></ellipse><ellipse cx="492" cy="167.44757327060822" rx="5" ry="3.5999999999999996" fill="rgb(78, 122, 69)"></ellipse><ellipse cx="506" cy="166.3348617835285" rx="5" ry="3.5999999999999996" fill="rgb(78, 122, 69)"></ellipse><ellipse cx="520" cy="166.00595510766254" rx="5" ry="3.5999999999999996" fill="rgb(78, 122, 69)"></ellipse><ellipse cx="534" cy="166.53119128205768" rx="5" ry="3.5999999999999996" fill="rgb(78, 122, 69)"></ellipse><ellipse cx="548" cy="167.79824640071104" rx="5" ry="3.5999999999999996" fill="rgb(78, 122, 69)"></ellipse><ellipse cx="562" cy="169.5361555396778" rx="5" ry="3.5999999999999996" fill="rgb(78, 122, 69)"></ellipse><ellipse cx="576" cy="171.37325971527957" rx="5" ry="3.5999999999999996" fill="rgb(78, 122, 69)"></ellipse><circle cx="578.5" cy="172.37325971527957" r="1.8" fill="rgb(184, 58, 46)"></circle><ellipse cx="590" cy="172.91668667918856" rx="5" ry="3.5999999999999996" fill="rgb(78, 122, 69)"></ellipse><ellipse cx="604" cy="173.8363682569953" rx="5" ry="3.5999999999999996" fill="rgb(78, 122, 69)"></ellipse><ellipse cx="618" cy="173.93562677847447" rx="5" ry="3.5999999999999996" fill="rgb(78, 122, 69)"></ellipse><ellipse cx="632" cy="173.1932354024827" rx="5" ry="3.5999999999999996" fill="rgb(78, 122, 69)"></ellipse><ellipse cx="646" cy="171.76795756383154" rx="5" ry="3.5999999999999996" fill="rgb(78, 122, 69)"></ellipse><ellipse cx="360" cy="183.12594029477654" rx="5.5" ry="3.96" fill="rgb(78, 122, 69)"></ellipse><ellipse cx="375" cy="184.58907538569514" rx="5.5" ry="3.96" fill="rgb(78, 122, 69)"></ellipse><ellipse cx="390" cy="186.32240273226054" rx="5.5" ry="3.96" fill="rgb(78, 122, 69)"></ellipse><ellipse cx="405" cy="187.99398991172347" rx="5.5" ry="3.96" fill="rgb(78, 122, 69)"></ellipse><ellipse cx="420" cy="189.28372775173682" rx="5.5" ry="3.96" fill="rgb(78, 122, 69)"></ellipse><ellipse cx="435" cy="189.9446312804225" rx="5.5" ry="3.96" fill="rgb(78, 122, 69)"></ellipse><ellipse cx="450" cy="189.85013738209733" rx="5.5" ry="3.96" fill="rgb(78, 122, 69)"></ellipse><ellipse cx="465" cy="189.0183416511499" rx="5.5" ry="3.96" fill="rgb(78, 122, 69)"></ellipse><ellipse cx="480" cy="187.60853308325258" rx="5.5" ry="3.96" fill="rgb(78, 122, 69)"></ellipse><ellipse cx="495" cy="185.89069021101324" rx="5.5" ry="3.96" fill="rgb(78, 122, 69)"></ellipse><ellipse cx="510" cy="184.1937801782404" rx="5.5" ry="3.96" fill="rgb(78, 122, 69)"></ellipse><ellipse cx="525" cy="182.84276148713613" rx="5.5" ry="3.96" fill="rgb(78, 122, 69)"></ellipse><ellipse cx="540" cy="182.09635440090193" rx="5.5" ry="3.96" fill="rgb(78, 122, 69)"></ellipse><ellipse cx="555" cy="182.09749597812737" rx="5.5" ry="3.96" fill="rgb(78, 122, 69)"></ellipse><ellipse cx="570" cy="182.8459676066184" rx="5.5" ry="3.96" fill="rgb(78, 122, 69)"></ellipse><ellipse cx="585" cy="184.19843686766234" rx="5.5" ry="3.96" fill="rgb(78, 122, 69)"></ellipse><ellipse cx="600" cy="185.89590571371684" rx="5.5" ry="3.96" fill="rgb(78, 122, 69)"></ellipse><ellipse cx="615" cy="187.61330862976035" rx="5.5" ry="3.96" fill="rgb(78, 122, 69)"></ellipse><ellipse cx="630" cy="189.0217627236557" rx="5.5" ry="3.96" fill="rgb(78, 122, 69)"></ellipse><ellipse cx="645" cy="189.85154884475074" rx="5.5" ry="3.96" fill="rgb(78, 122, 69)"></ellipse><ellipse cx="340" cy="199.00650930277413" rx="6" ry="4.32" fill="rgb(78, 122, 69)"></ellipse><ellipse cx="356" cy="199.44853545548017" rx="6" ry="4.32" fill="rgb(78, 122, 69)"></ellipse><ellipse cx="372" cy="200.5109370248591" rx="6" ry="4.32" fill="rgb(78, 122, 69)"></ellipse><ellipse cx="388" cy="202.0081320325425" rx="6" ry="4.32" fill="rgb(78, 122, 69)"></ellipse><ellipse cx="404" cy="203.67858809799023" rx="6" ry="4.32" fill="rgb(78, 122, 69)"></ellipse><ellipse cx="420" cy="205.23050732637742" rx="6" ry="4.32" fill="rgb(78, 122, 69)"></ellipse><ellipse cx="436" cy="206.392798024155" rx="6" ry="4.32" fill="rgb(78, 122, 69)"></ellipse><circle cx="439" cy="207.392798024155" r="1.8" fill="rgb(184, 58, 46)"></circle><ellipse cx="452" cy="206.96242942277948" rx="6" ry="4.32" fill="rgb(78, 122, 69)"></ellipse><ellipse cx="468" cy="206.83989741293433" rx="6" ry="4.32" fill="rgb(78, 122, 69)"></ellipse><ellipse cx="484" cy="206.04660607896577" rx="6" ry="4.32" fill="rgb(78, 122, 69)"></ellipse><ellipse cx="500" cy="204.7211287997389" rx="6" ry="4.32" fill="rgb(78, 122, 69)"></ellipse><ellipse cx="516" cy="203.0950020327019" rx="6" ry="4.32" fill="rgb(78, 122, 69)"></ellipse><ellipse cx="532" cy="201.45228016105847" rx="6" ry="4.32" fill="rgb(78, 122, 69)"></ellipse><ellipse cx="548" cy="200.0799164270059" rx="6" ry="4.32" fill="rgb(78, 122, 69)"></ellipse><ellipse cx="564" cy="199.217637487721" rx="6" ry="4.32" fill="rgb(78, 122, 69)"></ellipse><ellipse cx="580" cy="199.01606758555258" rx="6" ry="4.32" fill="rgb(78, 122, 69)"></ellipse><circle cx="583" cy="200.01606758555258" r="1.8" fill="rgb(184, 58, 46)"></circle><ellipse cx="596" cy="199.51041726828424" rx="6" ry="4.32" fill="rgb(78, 122, 69)"></ellipse><ellipse cx="612" cy="200.6143327552257" rx="6" ry="4.32" fill="rgb(78, 122, 69)"></ellipse><ellipse cx="628" cy="202.1349803515454" rx="6" ry="4.32" fill="rgb(78, 122, 69)"></ellipse><ellipse cx="644" cy="203.80673094160565" rx="6" ry="4.32" fill="rgb(78, 122, 69)"></ellipse><ellipse cx="-10" cy="194.49616885423495" rx="5.5" ry="3.96" fill="rgb(78, 122, 69)"></ellipse><ellipse cx="5" cy="193.43574217828348" rx="5.5" ry="3.96" fill="rgb(78, 122, 69)"></ellipse><ellipse cx="20" cy="193.0031352487062" rx="5.5" ry="3.96" fill="rgb(78, 122, 69)"></ellipse><ellipse cx="35" cy="193.3042653295578" rx="5.5" ry="3.96" fill="rgb(78, 122, 69)"></ellipse><ellipse cx="50" cy="194.26540527476706" rx="5.5" ry="3.96" fill="rgb(78, 122, 69)"></ellipse><ellipse cx="65" cy="195.6512345048193" rx="5.5" ry="3.96" fill="rgb(78, 122, 69)"></ellipse><ellipse cx="80" cy="197.12245369171367" rx="5.5" ry="3.96" fill="rgb(78, 122, 69)"></ellipse><ellipse cx="95" cy="198.31885706793545" rx="5.5" ry="3.96" fill="rgb(78, 122, 69)"></ellipse><ellipse cx="-10" cy="209.1345445482457" rx="6" ry="4.32" fill="rgb(78, 122, 69)"></ellipse><circle cx="-7" cy="210.1345445482457" r="1.8" fill="rgb(184, 58, 46)"></circle><ellipse cx="6" cy="209.04322740959776" rx="6" ry="4.32" fill="rgb(78, 122, 69)"></ellipse><ellipse cx="22" cy="209.59470240011572" rx="6" ry="4.32" fill="rgb(78, 122, 69)"></ellipse><ellipse cx="38" cy="210.6690807652544" rx="6" ry="4.32" fill="rgb(78, 122, 69)"></ellipse><ellipse cx="54" cy="212.03279636634656" rx="6" ry="4.32" fill="rgb(78, 122, 69)"></ellipse><ellipse cx="70" cy="213.38938215088763" rx="6" ry="4.32" fill="rgb(78, 122, 69)"></ellipse><ellipse cx="86" cy="214.44392106381838" rx="6" ry="4.32" fill="rgb(78, 122, 69)"></ellipse><ellipse cx="102" cy="214.96715999472664" rx="6" ry="4.32" fill="rgb(78, 122, 69)"></ellipse><g transform="scale(1 1)" fill="rgb(0, 0, 0)"><path d="M-10 232C110 214 250 218 360 226s200-8 290-2V290H-10Z" fill="rgb(110, 154, 90)"></path></g><g transform="translate(0 0)" fill="rgb(0, 0, 0)"><g fill="rgb(0, 0, 0)"><path d="M577 244v-44" fill="rgb(0, 0, 0)" stroke="rgb(43, 30, 21)" stroke-width="3px" stroke-linecap="round"></path><path d="M560 236c-8-30 4-52 18-60 14 8 24 30 14 60z" fill="rgb(78, 122, 69)"></path></g></g><g fill="rgb(0, 0, 0)"><path d="M30 246c-8-22 2-40 14-46 12 6 22 24 12 46z" fill="rgb(78, 122, 69)"></path></g></g></svg>